<svg width="360" height="82" viewBox="0 0 360 82" fill="none" xmlns="http://www.w3.org/2000/svg">
  <title>TechJignyasa</title>
  <g>
    <path d="M225 8L245 18L259 10L276 18L293 15L307 28L298 41L279 43L268 56L251 50L236 58L221 48L205 55L194 45L198 28L214 20L225 8Z" stroke="#28A8FF" stroke-width="2.5" stroke-linecap="round" stroke-linejoin="round"/>
    <circle cx="225" cy="8" r="4.5" fill="white"/>
    <circle cx="245" cy="18" r="4.5" fill="white"/>
    <circle cx="259" cy="10" r="4.5" fill="white"/>
    <circle cx="276" cy="18" r="4.5" fill="white"/>
    <circle cx="293" cy="15" r="4.5" fill="white"/>
    <circle cx="307" cy="28" r="4.5" fill="white"/>
    <circle cx="298" cy="41" r="4.5" fill="white"/>
    <circle cx="279" cy="43" r="4.5" fill="white"/>
    <circle cx="268" cy="56" r="4.5" fill="white"/>
    <circle cx="251" cy="50" r="4.5" fill="white"/>
    <circle cx="236" cy="58" r="4.5" fill="white"/>
    <circle cx="221" cy="48" r="4.5" fill="white"/>
    <circle cx="205" cy="55" r="4.5" fill="white"/>
    <circle cx="194" cy="45" r="4.5" fill="white"/>
    <circle cx="198" cy="28" r="4.5" fill="white"/>
    <circle cx="214" cy="20" r="4.5" fill="white"/>
    <path d="M236 58L230 74" stroke="#28A8FF" stroke-width="2.5" stroke-linecap="round"/>
    <path d="M221 48L214 70" stroke="#28A8FF" stroke-width="2.5" stroke-linecap="round"/>
    <circle cx="230" cy="74" r="4.5" fill="white"/>
    <circle cx="214" cy="70" r="4.5" fill="white"/>
  </g>
  <text x="0" y="44" fill="white" font-family="Inter, Segoe UI, Arial, sans-serif" font-size="32" font-weight="500" letter-spacing="8">TECH</text>
  <text x="0" y="79" fill="#28A8FF" font-family="Inter, Segoe UI, Arial, sans-serif" font-size="32" font-weight="700" letter-spacing="9">JIGNYASA</text>
</svg>
